<svg width="32" height="32" viewBox="0 0 32 32" fill="none" xmlns="http://www.w3.org/2000/svg">
<path fill-rule="evenodd" clip-rule="evenodd" d="M6.60408 3H25.3961C26.2854 3 27.0454 3 27.6534 3.076C28.2974 3.15733 28.9201 3.34 29.4321 3.82C29.9521 4.30933 30.1587 4.91867 30.2494 5.552C30.3334 6.13467 30.3334 6.85867 30.3334 7.68533V8.72C30.3334 9.372 30.3334 9.93333 30.2854 10.404C30.2321 10.9107 30.1187 11.384 29.8441 11.8387C29.5707 12.2907 29.2041 12.6187 28.7801 12.912C28.3814 13.1893 27.8734 13.476 27.2734 13.8133L23.3507 16.0213C22.4574 16.524 22.1467 16.7053 21.9387 16.8853C21.4627 17.2987 21.1894 17.7587 21.0614 18.3333C21.0067 18.58 21.0001 18.8893 21.0001 19.8307V23.4733C21.0001 24.6747 21.0001 25.6947 20.8761 26.48C20.7454 27.3133 20.4401 28.1133 19.6401 28.6133C18.8574 29.1027 17.9974 29.0573 17.1601 28.8587C16.3534 28.668 15.3601 28.2787 14.1681 27.8133L14.0534 27.768C13.4934 27.5493 13.0054 27.3587 12.6187 27.1587C12.2027 26.944 11.8161 26.6773 11.5214 26.2613C11.2214 25.84 11.1027 25.3893 11.0481 24.928C11.0001 24.508 11.0001 24.004 11.0001 23.4413V19.8307C11.0001 18.8893 10.9947 18.58 10.9387 18.3333C10.818 17.7655 10.5088 17.2552 10.0614 16.8853C9.85341 16.7053 9.54141 16.524 8.64942 16.0213L4.72675 13.8133C4.12675 13.476 3.61875 13.1893 3.22008 12.912C2.79608 12.6187 2.42941 12.2907 2.15608 11.8387C1.88141 11.384 1.76808 10.9093 1.71608 10.404C1.66675 9.93467 1.66675 9.372 1.66675 8.72V7.68533C1.66675 6.85867 1.66675 6.13467 1.75075 5.552C1.84141 4.91867 2.04808 4.30933 2.56808 3.82C3.08008 3.34 3.70141 3.15733 4.34675 3.076C4.95475 3 5.71475 3 6.60408 3ZM4.59741 5.06133C4.15208 5.11733 4.01075 5.208 3.93741 5.27867C3.87075 5.34 3.78541 5.448 3.72941 5.836C3.66941 6.26 3.66675 6.83867 3.66675 7.75333V8.67333C3.66675 9.38533 3.66675 9.844 3.70408 10.1987C3.73875 10.528 3.79741 10.6867 3.86941 10.8053C3.94275 10.9267 4.06541 11.064 4.36008 11.2693C4.67208 11.4853 5.09741 11.7267 5.74675 12.092L9.63075 14.2787L9.73742 14.3387C10.4841 14.7587 10.9907 15.044 11.3721 15.3747C12.1433 16.0253 12.6777 16.9127 12.8921 17.8987C13.0001 18.388 13.0001 18.9387 13.0001 19.712V23.3907C13.0001 24.02 13.0014 24.4067 13.0361 24.6973C13.0654 24.9613 13.1147 25.0507 13.1507 25.1027C13.1907 25.1587 13.2707 25.2453 13.5361 25.3827C13.8187 25.528 14.2094 25.6813 14.8254 25.9227C16.1067 26.424 16.9694 26.7587 17.6214 26.9133C18.2601 27.0653 18.4707 26.9867 18.5787 26.9187C18.6694 26.8613 18.8094 26.7453 18.9014 26.168C18.9974 25.5587 19.0001 24.6973 19.0001 23.3893V19.712C19.0001 18.9387 19.0001 18.388 19.1094 17.8987C19.3234 16.9129 19.8573 16.0255 20.6281 15.3747C21.0094 15.044 21.5174 14.7573 22.2614 14.3387L22.3694 14.2787L26.2534 12.092C26.9028 11.7267 27.3281 11.4853 27.6401 11.2693C27.9347 11.064 28.0574 10.9267 28.1307 10.8053C28.2027 10.6867 28.2614 10.528 28.2948 10.1987C28.3321 9.844 28.3334 9.38533 28.3334 8.672V7.752C28.3334 6.83867 28.3307 6.25867 28.2707 5.836C28.2147 5.448 28.1281 5.34 28.0641 5.27867C27.9894 5.20933 27.8481 5.11733 27.4027 5.06133C26.9361 5.00133 26.3027 5 25.3334 5H6.66675C5.69741 5 5.06541 5.00133 4.59741 5.06133Z" fill="black"/>
</svg>
