<svg width="192" height="48" viewBox="0 0 192 48" fill="none" xmlns="http://www.w3.org/2000/svg">
<path d="M21.48 38V10H26.96V38H21.48ZM3.04 38V9.96H8.52V38H3.04ZM7.12 26.2V21.16H24.08V26.2H7.12ZM41.32 38.48C39.3467 38.48 37.6 38.04 36.08 37.16C34.56 36.2533 33.36 35.0133 32.48 33.44C31.6267 31.8667 31.2 30.0533 31.2 28C31.2 25.9467 31.64 24.1333 32.52 22.56C33.4267 20.9867 34.6533 19.76 36.2 18.88C37.7733 17.9733 39.5733 17.52 41.6 17.52C43.36 17.52 44.9733 17.9867 46.44 18.92C47.9333 19.8267 49.12 21.1733 50 22.96C50.9067 24.72 51.36 26.8667 51.36 29.4H36.2L36.68 28.92C36.68 29.9067 36.92 30.7733 37.4 31.52C37.9067 32.24 38.5467 32.8 39.32 33.2C40.12 33.5733 40.9733 33.76 41.88 33.76C42.9733 33.76 43.8667 33.5333 44.56 33.08C45.2533 32.6 45.7867 31.9867 46.16 31.24L50.88 33.08C50.32 34.2 49.5867 35.1733 48.68 36C47.8 36.8 46.7467 37.4133 45.52 37.84C44.2933 38.2667 42.8933 38.48 41.32 38.48ZM36.96 25.96L36.48 25.48H46.12L45.68 25.96C45.68 25 45.4533 24.24 45 23.68C44.5467 23.0933 43.9867 22.6667 43.32 22.4C42.68 22.1333 42.0533 22 41.44 22C40.8267 22 40.1733 22.1333 39.48 22.4C38.7867 22.6667 38.1867 23.0933 37.68 23.68C37.2 24.24 36.96 25 36.96 25.96ZM66.5084 38L66.3484 33.96V27.88C66.3484 26.68 66.2151 25.6533 65.9484 24.8C65.7084 23.9467 65.3084 23.2933 64.7484 22.84C64.2151 22.36 63.4818 22.12 62.5484 22.12C61.6951 22.12 60.9218 22.3067 60.2284 22.68C59.5351 23.0533 58.9484 23.6267 58.4684 24.4L53.8284 22.8C54.2018 21.9467 54.7484 21.12 55.4684 20.32C56.1884 19.4933 57.1218 18.8267 58.2684 18.32C59.4418 17.7867 60.8684 17.52 62.5484 17.52C64.5751 17.52 66.2551 17.9067 67.5884 18.68C68.9484 19.4533 69.9484 20.5467 70.5884 21.96C71.2551 23.3467 71.5751 25 71.5484 26.92L71.4284 38H66.5084ZM60.9084 38.48C58.5084 38.48 56.6418 37.9467 55.3084 36.88C54.0018 35.8133 53.3484 34.3067 53.3484 32.36C53.3484 30.2267 54.0551 28.6267 55.4684 27.56C56.9084 26.4667 58.9218 25.92 61.5084 25.92H66.5884V29.84H63.3484C61.6151 29.84 60.4151 30.0533 59.7484 30.48C59.0818 30.88 58.7484 31.4533 58.7484 32.2C58.7484 32.7867 59.0151 33.2533 59.5484 33.6C60.0818 33.92 60.8284 34.08 61.7884 34.08C62.6684 34.08 63.4418 33.88 64.1084 33.48C64.8018 33.0533 65.3484 32.52 65.7484 31.88C66.1484 31.2133 66.3484 30.5333 66.3484 29.84H67.6284C67.6284 32.56 67.1084 34.68 66.0684 36.2C65.0551 37.72 63.3351 38.48 60.9084 38.48ZM75.7566 38V10H81.0366V38H75.7566ZM93.8403 38.48C91.627 38.48 89.947 37.9333 88.8003 36.84C87.6803 35.7467 87.1203 34.1867 87.1203 32.16V11.76H92.4003V31C92.4003 31.8533 92.587 32.5067 92.9603 32.96C93.3336 33.3867 93.8803 33.6 94.6003 33.6C94.867 33.6 95.1603 33.5467 95.4803 33.44C95.8003 33.3067 96.1336 33.12 96.4803 32.88L98.3203 36.84C97.6803 37.32 96.9603 37.7067 96.1603 38C95.387 38.32 94.6136 38.48 93.8403 38.48ZM83.8803 22.48V18H97.4003V22.48H83.8803ZM101.734 38V10H107.014V38H101.734ZM115.014 38V27.76H120.294V38H115.014ZM115.014 27.76C115.014 26.4 114.854 25.3467 114.534 24.6C114.214 23.8533 113.774 23.32 113.214 23C112.654 22.6533 112.001 22.48 111.254 22.48C109.894 22.4533 108.841 22.8667 108.094 23.72C107.374 24.5733 107.014 25.84 107.014 27.52H105.254C105.254 25.3867 105.561 23.5867 106.174 22.12C106.814 20.6267 107.694 19.4933 108.814 18.72C109.961 17.92 111.294 17.52 112.814 17.52C114.414 17.52 115.761 17.84 116.854 18.48C117.974 19.12 118.827 20.12 119.414 21.48C120.001 22.8133 120.294 24.5467 120.294 26.68V27.76H115.014ZM124.827 38V18H130.107V38H124.827ZM127.467 14.76C126.667 14.76 125.96 14.4667 125.347 13.88C124.733 13.2667 124.427 12.5467 124.427 11.72C124.427 10.8933 124.733 10.1867 125.347 9.6C125.96 8.98667 126.667 8.68 127.467 8.68C128.293 8.68 129 8.98667 129.587 9.6C130.2 10.1867 130.507 10.8933 130.507 11.72C130.507 12.5467 130.2 13.2667 129.587 13.88C129 14.4667 128.293 14.76 127.467 14.76ZM136.975 38V16C136.975 13.8667 137.522 12.2133 138.615 11.04C139.709 9.84 141.375 9.24 143.615 9.24C144.389 9.24 145.202 9.37333 146.055 9.64C146.935 9.90666 147.735 10.2267 148.455 10.6L146.495 14.4C146.069 14.1867 145.682 14.0267 145.335 13.92C144.989 13.8133 144.669 13.76 144.375 13.76C143.655 13.76 143.122 14.0133 142.775 14.52C142.429 15 142.255 15.7867 142.255 16.88V38H136.975ZM133.655 22.24V18H147.175V22.24H133.655ZM154.678 46.48C153.958 46.48 153.158 46.3333 152.278 46.04C151.425 45.7733 150.665 45.4533 149.998 45.08L151.958 40.8C152.412 41.04 152.825 41.2267 153.198 41.36C153.598 41.52 153.945 41.6 154.238 41.6C154.798 41.6 155.292 41.44 155.718 41.12C156.145 40.8267 156.492 40.3867 156.758 39.8L159.118 34.24L165.478 18H171.278L162.198 39.72C161.638 41.0533 161.052 42.2267 160.438 43.24C159.825 44.28 159.065 45.08 158.158 45.64C157.278 46.2 156.118 46.48 154.678 46.48ZM157.718 38L148.558 18H154.358L161.038 34.24L162.758 38H157.718Z" fill="white"/>
<path d="M190.15 6.1502H185.85V1.8498C185.85 0.822132 185.028 0 184 0C182.972 0 182.15 0.822132 182.15 1.8498V6.1502H177.85C176.822 6.1502 176 6.97233 176 8C176 9.02767 176.822 9.8498 177.85 9.8498H182.15V14.1502C182.15 15.1779 182.972 16 184 16C185.028 16 185.85 15.1779 185.85 14.1502V9.8498H190.15C191.178 9.8498 192 9.02767 192 8C192 6.97233 191.178 6.1502 190.15 6.1502Z" fill="white"/>
</svg>
